<svg xmlns="http://www.w3.org/2000/svg" viewBox="0 0 300 200" width="300" height="100" style="height: auto">
  
  <g transform="translate(100 0) scale(0.8)">
    <g>
      <g transform="scale(0.2) translate(-1300 300)">
        <path d="M181.882,500.091l17.808-32.824l-21.014,16.705c9.561-56.649,26.896-117.026,49.827-176.85    c-26.84,48.577-49.785,105.651-61.12,168.294l-4.382-21.503l-7.457,36.591l-29.233-23.238l17.808,32.824l-37.33,0.99l34.741,13.697    l-27.961,24.754l35.418-11.838l-5.508,36.935l19.522-31.834l19.522,31.834l-5.508-36.935l35.418,11.838l-27.961-24.754l34.74-13.697    L181.882,500.091z M119.007,388.633l17.266,3.286l-17.26,4.049c-3.731,0.875-6.555,3.931-7.132,7.72l-5.091,33.377l-5.091-33.377    c-0.578-3.788-3.401-6.845-7.132-7.72l-17.26-4.049l17.266-3.286c3.917-0.745,6.935-3.885,7.525-7.829l4.692-31.36l4.692,31.36    C112.072,384.748,115.09,387.888,119.007,388.633z M367.203,238.453l-4.692-31.36l-4.692,31.36c-0.59,3.943-3.608,7.083-7.525,7.829    l-17.266,3.286l17.26,4.049c3.731,0.875,6.555,3.931,7.132,7.72l5.091,33.377l5.091-33.377c0.578-3.788,3.401-6.844,7.132-7.72    l17.26-4.049l-17.266-3.286C370.811,245.536,367.793,242.396,367.203,238.453z M188.517,161.126l-6.497-43.418l-6.496,43.418    c-0.817,5.46-4.995,9.807-10.418,10.839l-23.905,4.549l23.897,5.606c5.165,1.212,9.075,5.443,9.875,10.688l7.048,46.211    l7.049-46.211c0.8-5.245,4.709-9.476,9.875-10.688l23.897-5.606l-23.905-4.549C193.512,170.933,189.333,166.586,188.517,161.126z     M136.687,250.903c-7.443,0-13.478,6.034-13.478,13.478s6.034,13.478,13.478,13.478c7.443,0,13.478-6.034,13.478-13.478    S144.13,250.903,136.687,250.903z M324.824,298.781c-6.828,0-12.363,5.535-12.363,12.363c0,6.828,5.535,12.363,12.363,12.363    c6.828,0,12.363-5.535,12.363-12.363C337.187,304.316,331.652,298.781,324.824,298.781z M258.585,86.042    c-5.435,0-9.842,4.406-9.842,9.842c0,5.435,4.406,9.842,9.842,9.842c5.435,0,9.842-4.406,9.842-9.842    C268.426,90.448,264.02,86.042,258.585,86.042z M426.264,207.093c-4.551,0-8.241,3.69-8.241,8.241c0,4.551,3.69,8.241,8.241,8.241    c4.551,0,8.241-3.69,8.241-8.241C434.505,210.783,430.815,207.093,426.264,207.093z" fill="#1976d2"/>
        <path d="M434.505,154.289c-35.913,14.469-124.544,53.937-197.366,137.186    c33.396-61.934,81.455-109.24,114.747-137.186c-103.778,70.968-141.058,145.023-177.33,230.666    c15.113-89.673,83.627-230.731,216.625-319.396L434.505,154.289z M522.694,53.621l-126.771-18.25l63.988,131.048L522.694,53.621z" fill="#1976d2"/>
      </g>
      <text transform="translate(-140 150)" fill="#1976d2" font-size="75" dx="0 0 0 0 0 0 0 0 0 0 0 0 0 0 0 0 0">
        Indhiran Crackers
      </text>
    </g>
  </g>
</svg>